<?xml version="1.0" encoding="UTF-8" standalone="no"?>
<svg
        id="master-artboard"
        viewBox="0 0 1400 980"
        version="1.1"
        x="0px"
        y="0px"
        style="enable-background:new 0 0 336 235.2;"
        width="1400px"
        height="980px"
        sodipodi:docname="inked_sound.svg"
        inkscape:version="1.3.2 (091e20e, 2023-11-25, custom)"
        xmlns:inkscape="http://www.inkscape.org/namespaces/inkscape"
        xmlns:sodipodi="http://sodipodi.sourceforge.net/DTD/sodipodi-0.dtd"
        xmlns="http://www.w3.org/2000/svg"
        xmlns:svg="http://www.w3.org/2000/svg">
  <defs
          id="defs1" />
  <sodipodi:namedview
          id="namedview1"
          pagecolor="#505050"
          bordercolor="#eeeeee"
          borderopacity="1"
          inkscape:showpageshadow="0"
          inkscape:pageopacity="0"
          inkscape:pagecheckerboard="0"
          inkscape:deskcolor="#505050"
          showgrid="false"
          inkscape:zoom="0.82959184"
          inkscape:cx="700.3444"
          inkscape:cy="490"
          inkscape:window-width="1920"
          inkscape:window-height="1009"
          inkscape:window-x="-8"
          inkscape:window-y="-8"
          inkscape:window-maximized="1"
          inkscape:current-layer="master-artboard" />
  <g
          transform="matrix(6.239957977410344, 0, 0, 6.239957977410344, 316.61509129845683, 156.75506369030728)"
          id="g1">
    <title
            id="title1">speaker-sound</title>
    <path
            class="cls-1"
            d="M31.65,0H91.23A3.77,3.77,0,0,1,95,3.76v99.3a3.78,3.78,0,0,1-3.76,3.75H31.65a3.77,3.77,0,0,1-3.76-3.75V3.76A3.77,3.77,0,0,1,31.65,0ZM15.5,59.81A2.87,2.87,0,0,1,20.81,62a29.09,29.09,0,0,0-1.95,10.43A27.14,27.14,0,0,0,20.47,82.6a2.87,2.87,0,1,1-5.32,2.13,32.52,32.52,0,0,1-2-12.36A35.19,35.19,0,0,1,15.5,59.81ZM4.07,54.69a2.87,2.87,0,1,1,5.17,2.5A37.06,37.06,0,0,0,5.73,72.74,31.53,31.53,0,0,0,9,87.32,2.87,2.87,0,1,1,3.85,90,37,37,0,0,1,0,72.71v0a42.8,42.8,0,0,1,4.07-18Zm98,7.32a2.87,2.87,0,0,1,5.31-2.2,35.19,35.19,0,0,1,2.37,12.56,32.52,32.52,0,0,1-2,12.36,2.87,2.87,0,1,1-5.32-2.13A27.14,27.14,0,0,0,104,72.44a29.09,29.09,0,0,0-2-10.43Zm11.57-4.82a2.87,2.87,0,1,1,5.17-2.5,42.81,42.81,0,0,1,4.07,18A37.08,37.08,0,0,1,119,90a2.87,2.87,0,1,1-5.1-2.63,31.41,31.41,0,0,0,3.22-14.58,37.06,37.06,0,0,0-3.51-15.55ZM61.44,10.58a13.28,13.28,0,1,1-9.38,3.89,13.23,13.23,0,0,1,9.38-3.89Zm0,38.06a23.66,23.66,0,1,1-16.72,6.93,23.57,23.57,0,0,1,16.72-6.93ZM75,58.7a19.22,19.22,0,1,0,5.63,13.59A19.15,19.15,0,0,0,75,58.7ZM61.44,65.2a7.09,7.09,0,1,1-7.09,7.09,7.09,7.09,0,0,1,7.09-7.09Zm0-45.52a4.17,4.17,0,1,1-4.17,4.17,4.17,4.17,0,0,1,4.17-4.17Zm7-2.87a10,10,0,1,0,2.91,7,9.92,9.92,0,0,0-2.91-7Z"
            style="fill-rule: evenodd; fill: rgb(229, 250, 252);"
            id="path1" />
  </g>
</svg>
